<svg xmlns="http://www.w3.org/2000/svg"><symbol id="view-compact" viewBox="0 0 24 24"><path fill="none" d="M0 0h24v24H0z"/><path d="M3 19h6v-7H3v7zm7 0h12v-7H10v7zM3 5v6h19V5H3z"/></symbol><symbol id="add-circle" viewBox="0 0 24 24"><path fill="none" d="M0 0h24v24H0z"/><path d="M12 2C6.48 2 2 6.48 2 12s4.48 10 10 10 10-4.48 10-10S17.52 2 12 2zm5 11h-4v4h-2v-4H7v-2h4V7h2v4h4v2z"/></symbol><symbol id="arrow-back" viewBox="0 0 24 24"><path fill="none" d="M0 0h24v24H0z"/><path d="M20 11H7.83l5.59-5.59L12 4l-8 8 8 8 1.41-1.41L7.83 13H20v-2z"/></symbol><symbol id="check" viewBox="0 0 24 24"><path fill="none" d="M0 0h24v24H0z"/><path d="M9 16.17L4.83 12l-1.42 1.41L9 19 21 7l-1.41-1.41z"/></symbol><symbol id="edit" viewBox="0 0 24 24"><path d="M3 17.25V21h3.75L17.81 9.94l-3.75-3.75L3 17.25zM20.71 7.04a.996.996 0 0 0 0-1.41l-2.34-2.34a.996.996 0 0 0-1.41 0l-1.83 1.83 3.75 3.75 1.83-1.83z"/><path fill="none" d="M0 0h24v24H0z"/></symbol><symbol id="close" viewBox="0 0 24 24"><path d="M19 6.41L17.59 5 12 10.59 6.41 5 5 6.41 10.59 12 5 17.59 6.41 19 12 13.41 17.59 19 19 17.59 13.41 12z"/><path fill="none" d="M0 0h24v24H0z"/></symbol><symbol id="delete" viewBox="0 0 24 24"><path d="M6 19c0 1.1.9 2 2 2h8c1.1 0 2-.9 2-2V7H6v12zM19 4h-3.5l-1-1h-5l-1 1H5v2h14V4z"/><path fill="none" d="M0 0h24v24H0z"/></symbol></svg>